<svg xmlns="http://www.w3.org/2000/svg" xmlns:xlink="http://www.w3.org/1999/xlink" width="207" height="108"><defs><path id="a" d="M0 .09h87v85.557H0z"/><path id="c" d="M48.732 17.46c-7.167.68-12.63 6.291-13.179 13.029-4.577 2.734-7.444 7.8-6.956 13.322l.013.131.002.023c.77 7.73 7.835 13.373 15.817 12.615 7.165-.68 12.629-6.29 13.178-13.03 4.599-2.746 7.47-7.847 6.949-13.398-.687-7.301-6.986-12.76-14.388-12.76-.475 0-.954.023-1.436.068zm-7.18 16.489a9.006 9.006 0 01-.24-1.356 9.003 9.003 0 01.516-3.91c1.16-3.182 4.057-5.592 7.646-5.943a8.948 8.948 0 019.8 8.097c.244 2.673-.714 5.183-2.421 7.009a9.035 9.035 0 01-4.58 2.645 8.95 8.95 0 01-1.16.199 8.99 8.99 0 01-.888.043h-.001a8.943 8.943 0 01-8.673-6.784zm-7.665 9.413c-.252-2.622.736-5.083 2.498-6.872 2.196 5.8 8.297 9.674 15.071 9.044.145-.013.285-.043.43-.061-1.198 3.12-4.186 5.484-7.888 5.828a9.81 9.81 0 01-.918.042h-.001c-4.73 0-8.753-3.414-9.192-7.981z"/><path id="d" d="M0 .18h87v55.105H0z"/><path id="f" d="M0 .073h87V37.84H0z"/><path id="h" d="M0 .09h87v42.054H0z"/></defs><g fill="none" fill-rule="evenodd"><g transform="translate(65 22)"><mask id="b" fill="#fff"><use xlink:href="#a"/></mask><path fill="#FFBE32" d="M86.401 30.818L44.351.366a1.449 1.449 0 00-1.7 0L.6 30.818c-.377.273-.6.71-.6 1.175v52.203c0 .801.65 1.45 1.45 1.45h84.1a1.45 1.45 0 001.45-1.45V31.993a1.45 1.45 0 00-.599-1.175" mask="url(#b)"/><path fill="#F4F5F7" d="M74.577 5.988L8.634 16.009c-.792.12-1.355.738-1.257 1.379l10.055 66.175c.098.641.818 1.064 1.61.944l65.943-10.022c.792-.12 1.355-.738 1.257-1.379L76.187 6.93c-.098-.64-.819-1.063-1.61-.942"/><path fill="#EAEBEF" d="M17.328 81.755l65.607-7.58a1.437 1.437 0 001.261-1.592l-5.218-45.168L46.93 50.257 10.52 35.324l5.217 45.169a1.436 1.436 0 001.59 1.262"/><use fill="#FFDC7D" transform="rotate(15 46.58 37.02)" xlink:href="#c"/><g transform="translate(0 30.362)"><mask id="e" fill="#fff"><use xlink:href="#d"/></mask><path fill="#FFDC7D" d="M86.288.382A1.45 1.45 0 0084.85.361L43.5 23.177 2.15.36A1.45 1.45 0 000 1.63v52.203c0 .801.65 1.451 1.45 1.451h84.1c.801 0 1.45-.65 1.45-1.45V1.63a1.45 1.45 0 00-.712-1.249" mask="url(#e)"/></g><g transform="translate(0 47.808)"><mask id="g" fill="#fff"><use xlink:href="#f"/></mask><path fill="#FFBE32" d="M85.55 37.839c.801 0 1.45-.65 1.45-1.451v-8.797L53.752.073 43.5 5.73 33.248.073 0 27.591v8.797c0 .801.65 1.45 1.45 1.45h84.1z" mask="url(#g)"/></g><g transform="translate(0 43.503)"><mask id="i" fill="#fff"><use xlink:href="#h"/></mask><path fill="#FFDC7D" d="M86.475 35.226L44.425.423a1.45 1.45 0 00-1.849 0L.526 35.226A1.45 1.45 0 000 36.343v4.35c0 .8.65 1.45 1.45 1.45h84.1c.801 0 1.45-.65 1.45-1.45v-4.35c0-.432-.192-.842-.525-1.117" mask="url(#i)"/></g></g><path fill="#F0D58B" d="M.675 30.952L48.017 52.03 61.43 21.903 14.09.825z"/><path fill="#FFDC7D" d="M.675 30.952L48.017 52.03 32.011 24.276z"/><path fill="#F0BE52" d="M.675 30.952L48.017 52.03 33.448 21.048z"/><path fill="#F0D58B" d="M.675 30.952L48.017 52.03 32.011 24.276z"/><path fill="#F0BE52" d="M14.089.825l14.569 30.982 32.772-9.904z"/><path fill="#F0D58B" d="M14.089.825L30.095 28.58l31.335-6.676z"/><g opacity=".671"><path fill="#FFDC7D" d="M169.176 68.754l37.831-9.432-6.075-24.366-37.831 9.432z"/><path fill="#FFDC7D" d="M169.176 68.754l37.831-9.432-22.433-9.39z"/><path fill="#FFBE32" d="M169.176 68.754l37.831-9.432-22.912-11.314z"/><path fill="#FFDC7D" d="M169.176 68.754l37.831-9.432-22.433-9.39z"/><path fill="#FFBE32" d="M163.1 44.388l22.913 11.314 14.92-20.746z"/><path fill="#FFDC7D" d="M163.1 44.388l22.434 9.39 15.398-18.822z"/></g><g opacity=".408"><path fill="#FFDC7D" d="M26.514 99.302l27.342-6.817-4.39-17.61-27.342 6.817z"/><path fill="#FFDC7D" d="M26.514 99.302l27.342-6.817-16.213-6.787z"/><path fill="#FFBE32" d="M26.514 99.302l27.342-6.817-16.56-8.177z"/><path fill="#FFDC7D" d="M26.514 99.302l27.342-6.817-16.213-6.787z"/><path fill="#FFBE32" d="M22.124 81.692l16.559 8.177 10.782-14.994z"/><path fill="#FFDC7D" d="M22.124 81.692l16.212 6.786 11.13-13.603z"/></g></g></svg>